<svg width="1190" height="198" viewBox="0 0 1190 198" fill="none" xmlns="http://www.w3.org/2000/svg">
<rect y="6" width="334" height="192" rx="53" fill="#4BE9A6"/>
<path d="M184.261 61.4731L174.4 80.023C171.711 85.0807 173.354 91.3551 178.176 94.4465L210.34 115.068C211.006 115.495 210.936 116.489 210.218 116.819L151.262 143.905C150.96 144.044 150.771 144.03 150.647 144.002C150.487 143.966 150.291 143.867 150.117 143.683C149.944 143.499 149.855 143.298 149.829 143.136C149.808 143.01 149.806 142.82 149.962 142.527L159.823 123.977C162.511 118.919 160.869 112.645 156.047 109.554L123.882 88.9317C123.216 88.505 123.286 87.5112 124.004 87.1812L182.96 60.095C183.262 59.9563 183.451 59.9697 183.575 59.9976C183.736 60.0336 183.931 60.1334 184.105 60.3174C184.278 60.5014 184.367 60.7025 184.393 60.8644C184.414 60.99 184.417 61.1796 184.261 61.4731Z" stroke="white" stroke-width="10"/>
<rect x="30" y="34" width="274" height="135" rx="35" stroke="white" stroke-width="14"/>
<path d="M432.316 52.864C441.996 52.864 450.488 54.756 457.792 58.54C465.184 62.324 470.86 67.736 474.82 74.776C478.868 81.728 480.892 89.824 480.892 99.064C480.892 108.304 478.868 116.4 474.82 123.352C470.86 130.216 465.184 135.54 457.792 139.324C450.488 143.108 441.996 145 432.316 145H400.108V52.864H432.316ZM431.656 129.292C441.336 129.292 448.816 126.652 454.096 121.372C459.376 116.092 462.016 108.656 462.016 99.064C462.016 89.472 459.376 81.992 454.096 76.624C448.816 71.168 441.336 68.44 431.656 68.44H418.588V129.292H431.656ZM527.197 146.188C520.157 146.188 513.821 144.648 508.189 141.568C502.557 138.4 498.113 133.956 494.857 128.236C491.689 122.516 490.105 115.916 490.105 108.436C490.105 100.956 491.733 94.356 494.989 88.636C498.333 82.916 502.865 78.516 508.585 75.436C514.305 72.268 520.685 70.684 527.725 70.684C534.765 70.684 541.145 72.268 546.865 75.436C552.585 78.516 557.073 82.916 560.329 88.636C563.673 94.356 565.345 100.956 565.345 108.436C565.345 115.916 563.629 122.516 560.197 128.236C556.853 133.956 552.277 138.4 546.469 141.568C540.749 144.648 534.325 146.188 527.197 146.188ZM527.197 130.084C530.541 130.084 533.665 129.292 536.569 127.708C539.561 126.036 541.937 123.572 543.697 120.316C545.457 117.06 546.337 113.1 546.337 108.436C546.337 101.484 544.489 96.16 540.793 92.464C537.185 88.68 532.741 86.788 527.461 86.788C522.181 86.788 517.737 88.68 514.129 92.464C510.609 96.16 508.849 101.484 508.849 108.436C508.849 115.388 510.565 120.756 513.997 124.54C517.517 128.236 521.917 130.084 527.197 130.084ZM597.381 47.32V145H578.901V47.32H597.381ZM610.887 108.172C610.887 100.78 612.339 94.224 615.243 88.504C618.235 82.784 622.239 78.384 627.255 75.304C632.359 72.224 638.035 70.684 644.283 70.684C649.739 70.684 654.491 71.784 658.539 73.984C662.675 76.184 665.975 78.956 668.439 82.3V71.872H687.051V145H668.439V134.308C666.063 137.74 662.763 140.6 658.539 142.888C654.403 145.088 649.607 146.188 644.151 146.188C637.991 146.188 632.359 144.604 627.255 141.436C622.239 138.268 618.235 133.824 615.243 128.104C612.339 122.296 610.887 115.652 610.887 108.172ZM668.439 108.436C668.439 103.948 667.559 100.12 665.799 96.952C664.039 93.696 661.663 91.232 658.671 89.56C655.679 87.8 652.467 86.92 649.035 86.92C645.603 86.92 642.435 87.756 639.531 89.428C636.627 91.1 634.251 93.564 632.403 96.82C630.643 99.988 629.763 103.772 629.763 108.172C629.763 112.572 630.643 116.444 632.403 119.788C634.251 123.044 636.627 125.552 639.531 127.312C642.523 129.072 645.691 129.952 649.035 129.952C652.467 129.952 655.679 129.116 658.671 127.444C661.663 125.684 664.039 123.22 665.799 120.052C667.559 116.796 668.439 112.924 668.439 108.436ZM723.58 83.224C725.956 79.352 729.036 76.316 732.82 74.116C736.692 71.916 741.092 70.816 746.02 70.816V90.22H741.136C735.328 90.22 730.928 91.584 727.936 94.312C725.032 97.04 723.58 101.792 723.58 108.568V145H705.1V71.872H723.58V83.224ZM846.417 127.444H809.721L803.649 145H784.245L817.377 52.732H838.893L872.025 145H852.489L846.417 127.444ZM841.401 112.66L828.069 74.116L814.736 112.66H841.401ZM925.593 70.816C931.137 70.816 936.065 72.048 940.377 74.512C944.689 76.888 948.033 80.452 950.409 85.204C952.873 89.868 954.105 95.5 954.105 102.1V145H935.625V104.608C935.625 98.8 934.173 94.356 931.269 91.276C928.365 88.108 924.405 86.524 919.389 86.524C914.285 86.524 910.237 88.108 907.245 91.276C904.341 94.356 902.889 98.8 902.889 104.608V145H884.409V47.32H902.889V80.98C905.265 77.812 908.433 75.348 912.393 73.588C916.353 71.74 920.753 70.816 925.593 70.816ZM1004.15 146.188C997.11 146.188 990.774 144.648 985.142 141.568C979.51 138.4 975.066 133.956 971.81 128.236C968.642 122.516 967.058 115.916 967.058 108.436C967.058 100.956 968.686 94.356 971.942 88.636C975.286 82.916 979.818 78.516 985.538 75.436C991.258 72.268 997.638 70.684 1004.68 70.684C1011.72 70.684 1018.1 72.268 1023.82 75.436C1029.54 78.516 1034.03 82.916 1037.28 88.636C1040.63 94.356 1042.3 100.956 1042.3 108.436C1042.3 115.916 1040.58 122.516 1037.15 128.236C1033.81 133.956 1029.23 138.4 1023.42 141.568C1017.7 144.648 1011.28 146.188 1004.15 146.188ZM1004.15 130.084C1007.49 130.084 1010.62 129.292 1013.52 127.708C1016.51 126.036 1018.89 123.572 1020.65 120.316C1022.41 117.06 1023.29 113.1 1023.29 108.436C1023.29 101.484 1021.44 96.16 1017.75 92.464C1014.14 88.68 1009.69 86.788 1004.41 86.788C999.134 86.788 994.69 88.68 991.082 92.464C987.562 96.16 985.802 101.484 985.802 108.436C985.802 115.388 987.518 120.756 990.95 124.54C994.47 128.236 998.87 130.084 1004.15 130.084ZM1074.33 83.224C1076.71 79.352 1079.79 76.316 1083.57 74.116C1087.45 71.916 1091.85 70.816 1096.77 70.816V90.22H1091.89C1086.08 90.22 1081.68 91.584 1078.69 94.312C1075.79 97.04 1074.33 101.792 1074.33 108.568V145H1055.85V71.872H1074.33V83.224ZM1104.47 108.172C1104.47 100.78 1105.92 94.224 1108.83 88.504C1111.82 82.784 1115.82 78.384 1120.84 75.304C1125.94 72.224 1131.62 70.684 1137.87 70.684C1143.32 70.684 1148.07 71.784 1152.12 73.984C1156.26 76.184 1159.56 78.956 1162.02 82.3V71.872H1180.63V145H1162.02V134.308C1159.65 137.74 1156.35 140.6 1152.12 142.888C1147.99 145.088 1143.19 146.188 1137.73 146.188C1131.57 146.188 1125.94 144.604 1120.84 141.436C1115.82 138.268 1111.82 133.824 1108.83 128.104C1105.92 122.296 1104.47 115.652 1104.47 108.172ZM1162.02 108.436C1162.02 103.948 1161.14 100.12 1159.38 96.952C1157.62 93.696 1155.25 91.232 1152.25 89.56C1149.26 87.8 1146.05 86.92 1142.62 86.92C1139.19 86.92 1136.02 87.756 1133.11 89.428C1130.21 91.1 1127.83 93.564 1125.99 96.82C1124.23 99.988 1123.35 103.772 1123.35 108.172C1123.35 112.572 1124.23 116.444 1125.99 119.788C1127.83 123.044 1130.21 125.552 1133.11 127.312C1136.11 129.072 1139.27 129.952 1142.62 129.952C1146.05 129.952 1149.26 129.116 1152.25 127.444C1155.25 125.684 1157.62 123.22 1159.38 120.052C1161.14 116.796 1162.02 112.924 1162.02 108.436Z" fill="#083321"/>
</svg>
